<svg width="321" height="419" viewBox="0 0 321 419" fill="none" xmlns="http://www.w3.org/2000/svg">
<path d="M125.025 325.96C133.147 321.045 142.223 322.06 151.107 322.201C156.884 322.292 161.681 321.374 166.496 317.261C174.26 310.629 184.82 312.064 191.527 319.315C198.123 326.444 198.631 336.309 192.793 343.878C187.137 351.211 175.14 354.273 167.855 348.145C157.647 339.558 145.622 342.489 134.444 340.247C133.447 340.047 132.16 341.29 131.151 341.791C121.829 334.433 121.829 334.433 124.638 327.165C124.741 326.244 125.069 325.915 125.025 325.96ZM186.358 336.78C187.668 329.39 187.668 329.39 183.352 326.321C183.126 330.071 182.895 333.921 182.663 337.772C183.656 337.802 184.648 337.832 186.358 336.78Z" fill="#DC1235"/>
<path d="M33.9979 250.432C13.5078 243.002 6.70807 228.743 7.45694 208.106C8.56831 177.48 7.72473 146.784 7.76738 116.117C7.77339 111.794 8.38462 107.455 8.14676 103.155C7.99554 100.422 7.45791 97.2846 5.9537 95.1208C-3.37523 81.7011 -1.825 70.4989 11.1982 60.633C20.9241 53.2651 32.1125 48.7585 43.7708 45.997C58.5671 42.4924 73.6668 40.2848 88.5683 37.1932C91.2289 36.641 93.926 34.9092 95.9766 33.0335C101.603 27.8868 106.468 21.8396 112.391 17.0949C142.852 -7.30269 184.267 -5.35933 212.622 21.4765C213.833 22.6216 215.079 23.7485 216.15 25.0173C223.437 33.6457 231.557 38.0751 243.933 39.0801C263.671 40.6831 283.169 46.211 301.071 55.7193C316.806 64.0769 320.468 71.3356 319.182 89.456C318.766 95.316 320.467 101.295 320.491 107.223C320.632 141.222 320.564 175.222 320.558 209.222C320.557 218.336 320.147 227.688 313.508 234.553C309.029 239.184 303.145 242.623 297.486 245.895C292.661 248.686 287.258 250.479 281.207 253.106C282.778 256.469 283.808 259.57 285.53 262.22C301.542 286.867 307.92 314.806 311.942 343.191C314.31 359.9 313.884 377.015 314.467 393.955C314.591 397.556 314.067 401.312 313.099 404.791C310.85 412.879 304.801 417.574 296.452 418.211C294.131 418.388 291.787 418.265 289.454 418.265C202.454 418.266 115.454 418.266 28.4543 418.266C27.121 418.266 25.787 418.292 24.4544 418.259C12.6472 417.973 5.27803 412.006 4.64534 400.3C2.39849 358.729 5.60183 317.817 22.2308 278.976C25.3582 271.671 29.782 264.93 33.2948 257.776C34.3024 255.723 34.2137 253.133 33.9979 250.432ZM119.785 326.348C117.284 328.714 114.783 331.08 113.451 332.341C129.762 348.626 145.189 364.029 159.869 378.687C174.771 363.805 190.422 348.175 206.394 332.225C191.371 317.238 175.727 301.632 160.078 286.02C147.202 298.68 135.116 310.516 123.132 322.455C122.322 323.262 122.281 324.843 121.971 325.972C121.971 325.972 121.643 326.302 119.785 326.348ZM132.42 268.915C110.445 268.394 88.6882 266.602 67.6614 259.375C64.0339 258.128 59.7885 258.646 55.8244 258.422C51.7762 258.193 49.4545 260.115 47.1485 263.614C36.9198 279.134 30.4903 296.167 26.2783 314.079C22.3926 330.604 20.7416 347.409 19.4316 364.372C18.4488 377.098 19.7567 389.331 20.4972 401.627C32.4135 403.717 146.077 403.273 153.976 400.967C131.4 378.379 109.131 356.099 86.4286 333.386C106.224 311.356 128.892 293.338 148.404 270.806C142.729 270.051 138.469 269.485 132.42 268.915ZM183.4 382.816C177.388 388.842 171.377 394.867 163.987 402.273C209.98 402.273 253.728 402.273 297.333 402.273C305.7 374.894 293.751 294.097 267.625 262.743C235.759 265.803 204.333 268.82 170.991 272.021C192.51 293.094 212.634 312.8 233.268 333.006C216.412 349.843 200.406 365.83 183.4 382.816ZM297.516 228.96C305.268 224.797 305.716 217.318 305.742 209.949C305.863 176.305 305.812 142.661 305.748 109.016C305.744 106.905 305.112 104.795 304.854 103.194C281.256 109.885 258.387 116.37 234.793 123.06C234.574 150.506 227.808 176.814 211.091 200.925C232.513 212.374 254.376 221.91 267.927 242.57C278.133 237.942 287.18 233.838 297.516 228.96ZM100.515 168.736C106.094 181.182 111.889 193.144 123.48 201.773C154.763 225.063 187.946 210.309 202.714 186.474C211.074 172.982 216.172 158.399 218.142 142.701C218.863 136.956 219.342 131.18 220.071 124.051C198.026 124.822 177.545 126.315 157.088 126.038C136.37 125.758 115.675 123.728 94.6668 122.446C92.3443 138.558 94.8831 153.054 100.515 168.736ZM51.4322 235.533C56.5812 230.426 61.2222 224.633 66.9914 220.364C77.0938 212.89 87.8886 206.352 99.1541 198.919C83.9621 175.133 76.525 149.089 78.6086 121.309C59.6622 116.021 41.645 110.993 22.5022 105.65C22.5022 114.423 22.502 122.035 22.5022 129.647C22.5029 157.614 22.4688 185.582 22.531 213.549C22.5452 219.921 22.7571 226.633 28.7241 230.551C33.6876 233.81 39.2215 236.307 44.7489 238.53C46.1891 239.109 48.5489 237.401 51.4322 235.533ZM195.156 26.4421C173.479 11.11 151.156 11.3725 128.63 24.169C107.744 36.0346 96.9382 54.0946 96.2799 78.4054C97.8699 79.0977 99.0189 79.945 100.246 80.0789C113.441 81.5204 126.621 83.4441 139.859 84.0511C154.799 84.7361 169.799 84.4364 184.764 84.1194C193.046 83.9441 201.355 83.1961 209.561 82.0528C214.325 81.3892 218.907 79.4308 224.309 77.8376C222.472 67.6877 220.87 58.6138 219.13 49.5662C218.963 48.699 218.02 47.9134 217.304 47.2303C210.322 40.5734 203.311 33.9465 195.156 26.4421ZM19.5911 86.4757C24.1647 88.4598 28.7417 90.4361 33.3114 92.429C64.439 106.004 97.8228 107.661 130.894 109.948C151.755 111.39 172.8 110.392 193.759 110.133C204.372 110.002 215.184 110.205 225.541 108.284C246.42 104.412 267.426 100.545 287.182 92.2853C293.435 89.6712 300.451 88.2815 305.341 83.2475C304.274 72.0975 295.66 68.5406 287.702 65.9023C272.6 60.8958 257.063 57.1801 241.646 53.1661C239.726 52.6664 237.431 53.6115 235.577 53.8523C236.618 61.8435 238.064 69.0151 238.368 76.2347C238.801 86.4987 236.542 89.9034 226.439 92.962C218.237 95.445 209.675 97.4425 201.16 98.0317C186.901 99.018 172.548 98.5985 158.241 98.9748C137.287 99.5257 116.445 98.6444 95.8693 94.3695C82.8712 91.6691 78.6108 85.1392 81.2226 72.011C82.4769 65.7065 84.2202 59.4992 86.2394 51.2045C70.0935 55.2151 55.4947 58.2187 41.3253 62.608C33.5236 65.0246 26.0841 69.2091 19.1507 73.6432C13.492 77.2622 13.8532 79.3095 19.5911 86.4757ZM72.0328 235.195C69.7621 237.23 67.4914 239.264 64.6477 241.813C84.3213 251.556 104.436 252.691 124.099 253.855C146.208 255.164 168.412 257.463 190.675 254.962C203.857 253.482 217.156 253.075 230.369 251.83C237.433 251.163 244.426 249.742 251.877 248.596C243.529 234.36 233.197 227.314 199.958 212.688C169.67 235.347 139.284 233.182 109.699 210.233C96.9218 218.617 84.9934 226.444 72.0328 235.195Z" fill="#DA0026"/>
</svg>